<?xml version="1.0" encoding="utf-8"?>
<!-- Generator: Adobe Illustrator 25.2.3, SVG Export Plug-In . SVG Version: 6.00 Build 0)  -->
<svg version="1.1" xmlns="http://www.w3.org/2000/svg" xmlns:xlink="http://www.w3.org/1999/xlink" x="0px" y="0px"
	 viewBox="0 0 60 60" enable-background="new 0 0 60 60" xml:space="preserve">
<g id="Background">
</g>
<g id="Layer_1">
	<g>
		<path fill="#F4B24F" d="M5,28.35c0.23-1.38,0.41-2.72,0.7-4.04c0.42-1.96,1.13-3.84,2.08-5.61c0.08-0.16,0.3-0.35,0.46-0.35
			c2.69-0.02,5.37-0.02,7.99-0.02c-0.42,3.33-0.85,6.65-1.27,10.01C11.76,28.35,8.45,28.35,5,28.35z"/>
		<path fill="#FFFFFF" d="M43.81,18.33c1.85,0,3.8,0,5.75,0c0.41,0,0.82,0.06,1.21-0.01c1.02-0.19,1.52,0.26,1.92,1.18
			c1.11,2.55,1.88,5.17,2.18,7.93c0.03,0.29,0.04,0.58,0.06,0.91c-3.34,0-6.65,0-9.85,0C44.65,25.01,44.23,21.7,43.81,18.33z"/>
		<path fill="#FFFFFF" d="M28.33,18.33c0,3.36,0,6.66,0,10c-3.28,0-6.57,0-9.94,0c0.12-1.46,0.17-2.91,0.38-4.34
			c0.25-1.76,0.62-3.5,0.94-5.25c0.05-0.27,0.12-0.42,0.44-0.42C22.85,18.34,25.56,18.33,28.33,18.33z"/>
		<path fill="#F4B24F" d="M31.71,18.33c2.76,0,5.49,0,8.21,0.01c0.13,0,0.33,0.16,0.36,0.28c0.79,3.16,1.21,6.38,1.3,9.64
			c0,0.01-0.02,0.03-0.05,0.08c-3.25,0-6.52,0-9.82,0C31.71,25.03,31.71,21.72,31.71,18.33z"/>
		<path fill="#FFFFFF" d="M16.19,41.62c-1.73,0-3.53,0-5.33,0c-0.7,0-1.4-0.05-2.1,0.02c-0.67,0.07-1-0.18-1.28-0.79
			c-1.22-2.62-2.02-5.35-2.33-8.23c-0.02-0.22-0.03-0.44-0.04-0.66c0-0.07,0.01-0.14,0.02-0.24c3.32,0,6.62,0,9.82,0
			C15.36,35.02,15.77,38.29,16.19,41.62z"/>
		<path fill="#F4B24F" d="M45.07,31.71c3.21,0,6.5,0,9.93,0c-0.19,1.23-0.33,2.42-0.57,3.6c-0.42,2.06-1.14,4.02-2.1,5.89
			c-0.09,0.18-0.36,0.39-0.54,0.4c-2.61,0.03-5.23,0.02-7.84,0.02c-0.07,0-0.14-0.02-0.11-0.02C44.24,38.32,44.66,35.04,45.07,31.71
			z"/>
		<path fill="#F4B24F" d="M18.43,31.71c3.32,0,6.58,0,9.88,0c0,3.28,0,6.56,0,9.88c-2.82,0-5.65,0-8.54,0
			C18.95,38.38,18.55,35.09,18.43,31.71z"/>
		<path fill="#FFFFFF" d="M31.71,31.71c3.3,0,6.55,0,9.87,0c-0.09,3.35-0.52,6.63-1.33,9.88c-2.84,0-5.67,0-8.54,0
			C31.71,38.31,31.71,35.03,31.71,31.71z"/>
		<path fill="#FFFFFF" d="M20.78,44.95c2.56,0,5.02,0,7.53,0c0,3.22,0,6.44,0,9.71c-0.99-0.31-1.81-0.86-2.54-1.53
			C23.34,50.91,21.96,48.04,20.78,44.95z"/>
		<path fill="#F4B24F" d="M31.68,54.68c0-3.28,0-6.48,0-9.71c2.49,0,4.97,0,7.54,0c-0.9,2.45-2,4.76-3.66,6.78
			C34.53,53.02,33.34,54.09,31.68,54.68z"/>
		<path fill="#F4B24F" d="M28.32,15.01c-2.51,0-4.97,0-7.53,0c1.64-3.91,3.32-7.7,7.53-9.69C28.32,8.62,28.32,11.79,28.32,15.01z"/>
		<path fill="#FFFFFF" d="M31.69,14.98c0-3.19,0-6.35,0-9.6c0.26,0.11,0.5,0.18,0.71,0.29c1.3,0.63,2.33,1.6,3.23,2.71
			c1.38,1.7,2.96,4.65,3.53,6.6C36.67,14.98,34.21,14.98,31.69,14.98z"/>
		<path fill="#FFFFFF" d="M38.57,53.41c1.87-2.59,3.17-5.45,4.16-8.45c2.42,0,4.8,0,7.28,0C46.98,48.93,43.21,51.73,38.57,53.41z"/>
		<path fill="#F4B24F" d="M21.44,53.4c-4.63-1.67-8.39-4.48-11.43-8.43c0.2-0.02,0.31-0.04,0.43-0.04c2.14,0,4.27,0,6.41-0.01
			c0.29,0,0.46,0.04,0.57,0.36C18.36,48.18,19.65,50.91,21.44,53.4z"/>
		<path fill="#F4B24F" d="M38.59,6.67c4.58,1.65,8.33,4.42,11.37,8.36c-0.46,0-0.81,0-1.15,0c-1.88,0-3.76,0-5.64,0
			c-0.27,0-0.47,0.01-0.58-0.33C41.63,11.84,40.36,9.13,38.59,6.67z"/>
		<path fill="#FFFFFF" d="M21.44,6.66c-1.78,2.47-3.05,5.19-4.04,8.06c-0.04,0.13-0.24,0.29-0.37,0.29
			c-2.28,0.02-4.56,0.01-6.97,0.01C13.1,11.09,16.85,8.33,21.44,6.66z"/>
	</g>
</g>
</svg>
