<?xml version="1.0" encoding="utf-8"?>
<!-- Generator: Adobe Illustrator 25.2.3, SVG Export Plug-In . SVG Version: 6.00 Build 0)  -->
<svg version="1.1" xmlns="http://www.w3.org/2000/svg" xmlns:xlink="http://www.w3.org/1999/xlink" x="0px" y="0px"
	 viewBox="0 0 60 60" enable-background="new 0 0 60 60" xml:space="preserve">
<g id="Background">
</g>
<g id="Layer_1">
	<g>
		<path fill="#F4B24F" d="M52.5,18.05c-0.21,7.88-1.8,15.43-5.7,22.37c-3.66,6.5-8.92,11.26-15.7,14.34
			c-0.78,0.35-1.54,0.3-2.32-0.06C19.2,50.24,13.14,42.75,9.93,32.81c-1.82-5.63-2.58-11.42-2.42-17.33
			c0.02-0.71,0.04-1.44,0.55-1.99c0.32-0.35,0.72-0.7,1.15-0.86c6.64-2.52,13.29-5.03,19.96-7.49c0.53-0.2,1.27-0.16,1.81,0.04
			c6.54,2.41,13.06,4.88,19.59,7.32c1.22,0.45,1.9,1.27,1.93,2.57C52.52,16.06,52.5,17.06,52.5,18.05z M29.26,30.1
			c-1.08-1.09-2.11-2.15-3.17-3.19c-1.03-1-2.55-1.01-3.53-0.04c-1.01,0.99-1.03,2.53,0,3.57c1.65,1.67,3.3,3.33,4.98,4.98
			c1.05,1.03,2.55,1.04,3.57-0.01c3.6-3.73,7.17-7.48,10.75-11.23c0.51-0.54,0.75-1.19,0.67-1.93c-0.12-1.04-0.66-1.79-1.67-2.13
			c-0.99-0.34-1.9-0.13-2.63,0.63c-1.62,1.67-3.22,3.36-4.83,5.04C32.03,27.21,30.67,28.63,29.26,30.1z"/>
	</g>
</g>
</svg>
