<?xml version="1.0" encoding="utf-8"?>
<!-- Generator: Adobe Illustrator 25.2.3, SVG Export Plug-In . SVG Version: 6.00 Build 0)  -->
<svg version="1.1" xmlns="http://www.w3.org/2000/svg" xmlns:xlink="http://www.w3.org/1999/xlink" x="0px" y="0px"
	 viewBox="0 0 60 60" enable-background="new 0 0 60 60" xml:space="preserve">
<g id="Background">
</g>
<g id="Layer_1">
	<g>
		<path fill="#FFFFFF" d="M5.06,33.34c0-1.35-0.13-2.72,0.03-4.05c0.29-2.33,2.01-4.02,4.34-4.23c1.58-0.14,3.2-0.12,4.77,0.06
			c2.27,0.25,4.06,2.32,4.11,4.62c0.05,2.39,0.05,4.79,0,7.19c-0.05,2.39-1.87,4.42-4.35,4.68c-1.59,0.17-3.23,0.14-4.82-0.04
			c-2.33-0.27-4.07-2.37-4.13-4.72c-0.03-1.16,0-2.33,0-3.49C5.02,33.34,5.04,33.34,5.06,33.34z"/>
		<path fill="#FFFFFF" d="M54.92,33.36c0,1.39,0.13,2.79-0.03,4.16c-0.27,2.23-2.11,3.95-4.39,4.11c-1.55,0.11-3.13,0.12-4.67-0.07
			c-2.36-0.28-4.12-2.37-4.15-4.75c-0.03-2.31-0.03-4.62,0-6.93c0.04-2.65,2.2-4.83,4.86-4.87c1.44-0.02,2.89-0.07,4.31,0.1
			c2.33,0.28,4.09,2.35,4.15,4.7c0.03,1.18,0.01,2.36,0.01,3.54C54.97,33.35,54.94,33.35,54.92,33.36z"/>
		<path fill="#F4B24F" d="M49.68,21.65c-1.13,0-2.22,0-3.34,0c-1.01-4.47-3.38-8.03-7.2-10.57c-2.97-1.97-6.26-2.86-9.81-2.74
			c-7.48,0.26-14.18,5.73-15.7,13.3c-1.09,0-2.2,0-3.3,0c1-7.55,7.91-16.14,18.78-16.61C40.34,4.54,48.39,12.96,49.68,21.65z"/>
		<path fill="#F4B24F" d="M12.03,45.14c1.22-0.15,2.42-0.31,3.62-0.44c0.12-0.01,0.3,0.07,0.39,0.16c1.86,1.96,4.18,2.97,6.82,3.35
			c0.5,0.07,0.8,0.04,1.09-0.52c0.88-1.71,2.36-2.62,4.28-2.67c1.45-0.04,2.92-0.07,4.36,0.1c2.32,0.28,4.08,2.48,4.09,4.87
			c0.01,2.42-1.75,4.66-4.11,4.89c-1.78,0.17-3.61,0.16-5.38-0.06c-1.58-0.19-2.7-1.28-3.37-2.74c-0.18-0.39-0.4-0.48-0.78-0.51
			c-4.4-0.41-8.04-2.21-10.65-5.88c-0.11-0.16-0.21-0.32-0.32-0.48C12.03,45.18,12.02,45.13,12.03,45.14z"/>
	</g>
</g>
</svg>
