<?xml version="1.0" encoding="utf-8"?>
<!-- Generator: Adobe Illustrator 25.2.3, SVG Export Plug-In . SVG Version: 6.00 Build 0)  -->
<svg version="1.1" xmlns="http://www.w3.org/2000/svg" xmlns:xlink="http://www.w3.org/1999/xlink" x="0px" y="0px"
	 viewBox="0 0 60 60" enable-background="new 0 0 60 60" xml:space="preserve">
<g id="Background">
</g>
<g id="Layer_1">
	<g>
		<path fill="#F4B24F" d="M9.98,29.86c0-5.92-0.01-11.84,0-17.76c0-3.25,2.07-6.05,5.09-6.87c0.54-0.15,1.11-0.22,1.67-0.23
			c5.12-0.01,10.24,0.02,15.36,0c2.26-0.01,4.13,0.78,5.7,2.41c3.28,3.4,6.59,6.78,9.91,10.15c1.57,1.59,2.32,3.45,2.32,5.68
			c-0.02,8.13,0,16.25-0.01,24.38c0,3.34-1.91,6.05-5,7.02c-0.75,0.23-1.57,0.35-2.36,0.35C34.22,55,25.78,55,17.34,54.99
			c-4.24-0.01-7.35-3.12-7.36-7.37C9.97,41.7,9.98,35.78,9.98,29.86z M29.94,35.51c-2.48,0-4.96,0-7.44,0
			c-1.47,0-2.24,0.71-2.24,2.03c0,1.26,0.87,2.07,2.24,2.07c0.8,0,1.6,0,2.4,0c4.22,0,8.44,0,12.65,0c1.12,0,1.95-0.63,2.15-1.61
			c0.27-1.34-0.67-2.48-2.09-2.49C35.05,35.5,32.49,35.51,29.94,35.51z M26.19,29.37c0-0.01,0-0.02,0-0.03
			c1.37,0,2.74,0.06,4.1-0.02c1.17-0.06,1.79-0.88,1.75-2.07c-0.03-1.08-0.79-1.95-1.86-1.96c-2.69-0.04-5.39-0.04-8.09,0
			c-1.04,0.02-1.8,0.89-1.83,1.92c-0.04,1.26,0.82,2.12,2.18,2.15C23.69,29.39,24.94,29.37,26.19,29.37z"/>
	</g>
</g>
</svg>
