<?xml version="1.0" encoding="utf-8"?>
<!-- Generator: Adobe Illustrator 25.2.3, SVG Export Plug-In . SVG Version: 6.00 Build 0)  -->
<svg version="1.1" xmlns="http://www.w3.org/2000/svg" xmlns:xlink="http://www.w3.org/1999/xlink" x="0px" y="0px"
	 viewBox="0 0 60 60" enable-background="new 0 0 60 60" xml:space="preserve">
<g id="Background">
</g>
<g id="Layer_1">
	<g>
		<g>
			<path fill="#F4B24F" d="M28.43,5c1.04,0,2.08,0,3.13,0c0.13,0.03,0.25,0.07,0.38,0.08c3.89,0.29,7.54,1.41,10.86,3.45
				c6.45,3.97,10.43,9.69,11.82,17.16c0.17,0.91,0.26,1.83,0.38,2.75c0,1.04,0,2.08,0,3.13c-0.03,0.14-0.06,0.28-0.09,0.43
				c-0.16,1.11-0.27,2.23-0.5,3.32C52.07,46.36,42.29,54.6,31.03,54.98c-6.57,0.23-12.44-1.74-17.38-6.1
				C7.22,43.22,4.38,36.02,5.12,27.5c0.47-5.43,2.65-10.2,6.31-14.24c3.86-4.25,8.62-6.9,14.29-7.88C26.62,5.22,27.53,5.12,28.43,5z
				 M15.44,44.79c0.21-0.04,0.35-0.07,0.49-0.1c2.34-0.61,4.68-1.23,7.03-1.82c0.25-0.06,0.58-0.02,0.82,0.1
				c2.75,1.35,5.64,1.86,8.67,1.47c8.32-1.07,14.14-8.84,12.87-17.16c-1.26-8.21-9.09-13.84-17.29-12.43
				c-10.1,1.74-15.51,12.81-10.68,21.85c0.12,0.23,0.15,0.56,0.08,0.81C16.78,39.91,16.12,42.3,15.44,44.79z"/>
			<path fill="#FFFFFF" d="M19.03,41.24c0.36-1.31,0.67-2.56,1.05-3.8c0.16-0.52,0.11-0.93-0.18-1.4
				c-4.55-7.53-0.12-17.21,8.55-18.71c7.15-1.24,13.86,3.98,14.46,11.23c0.63,7.61-5.66,13.98-13.28,13.44
				c-1.98-0.14-3.82-0.75-5.53-1.74c-0.21-0.12-0.52-0.16-0.76-0.11c-1.33,0.32-2.64,0.67-3.97,1.02
				C19.28,41.19,19.19,41.21,19.03,41.24z M34.44,36.78c0.24-0.02,0.47,0,0.69-0.05c1.74-0.36,3.02-1.35,2.96-3.22
				c-0.01-0.19-0.14-0.47-0.29-0.55c-0.99-0.51-2.01-0.99-3.02-1.47c-0.35-0.17-0.64-0.09-0.88,0.25c-0.33,0.46-0.71,0.89-1.07,1.33
				c-0.23,0.29-0.49,0.32-0.82,0.19c-2.2-0.87-3.87-2.35-5.08-4.37c-0.18-0.29-0.18-0.53,0.04-0.8c0.31-0.38,0.63-0.75,0.87-1.17
				c0.12-0.21,0.18-0.55,0.1-0.76c-0.37-0.99-0.78-1.96-1.21-2.93c-0.09-0.19-0.25-0.4-0.44-0.49c-0.51-0.26-1.61-0.06-2.02,0.34
				c-1.16,1.14-1.57,2.51-1.25,4.1c0.28,1.36,1.04,2.47,1.86,3.55c1.58,2.09,3.41,3.89,5.84,4.97
				C31.91,36.25,33.11,36.78,34.44,36.78z"/>
		</g>
	</g>
</g>
</svg>
